<?xml version="1.0" encoding="UTF-8"?>
<svg xmlns="http://www.w3.org/2000/svg" xmlns:xlink="http://www.w3.org/1999/xlink" width="300pt" height="300pt" viewBox="0 0 300 300" version="1.1">
<g id="surface13581">
<rect x="0" y="0" width="300" height="300" style="fill:rgb(0%,0%,0%);fill-opacity:1;stroke:none;"/>
<path style=" stroke:none;fill-rule:nonzero;fill:rgb(80%,80%,80%);fill-opacity:1;" d="M 297 150 L 296.953125 263.96875 L 296.816406 272.109375 L 296.589844 277.097656 L 296.265625 280.710938 L 295.839844 283.535156 L 295.3125 285.839844 L 294.675781 287.761719 L 293.917969 289.390625 L 293.027344 290.789062 L 291.992188 291.992188 L 290.789062 293.027344 L 289.390625 293.917969 L 287.761719 294.675781 L 285.839844 295.3125 L 283.535156 295.839844 L 280.710938 296.265625 L 277.097656 296.589844 L 272.109375 296.816406 L 263.96875 296.953125 L 153.515625 297 L 36.03125 296.953125 L 27.890625 296.816406 L 22.902344 296.589844 L 19.289062 296.265625 L 16.464844 295.839844 L 14.160156 295.3125 L 12.238281 294.675781 L 10.609375 293.917969 L 9.210938 293.027344 L 8.007812 291.992188 L 6.972656 290.789062 L 6.082031 289.390625 L 5.324219 287.761719 L 4.6875 285.839844 L 4.160156 283.535156 L 3.734375 280.710938 L 3.410156 277.097656 L 3.183594 272.109375 L 3.046875 263.96875 L 3 153.769531 L 3.046875 36.03125 L 3.183594 27.890625 L 3.410156 22.902344 L 3.734375 19.289062 L 4.160156 16.464844 L 4.6875 14.160156 L 5.324219 12.238281 L 6.082031 10.609375 L 6.972656 9.210938 L 8.007812 8.007812 L 9.210938 6.972656 L 10.609375 6.082031 L 12.238281 5.324219 L 14.160156 4.6875 L 16.464844 4.160156 L 19.289062 3.734375 L 22.902344 3.410156 L 27.890625 3.183594 L 36.03125 3.046875 L 146.074219 3 L 263.96875 3.046875 L 272.109375 3.183594 L 277.097656 3.410156 L 280.710938 3.734375 L 283.535156 4.160156 L 285.839844 4.6875 L 287.761719 5.324219 L 289.390625 6.082031 L 290.789062 6.972656 L 291.992188 8.007812 L 293.027344 9.210938 L 293.917969 10.609375 L 294.675781 12.238281 L 295.3125 14.160156 L 295.839844 16.464844 L 296.265625 19.289062 L 296.589844 22.902344 L 296.816406 27.890625 L 296.953125 36.03125 L 297 145.960938 Z M 35.5 16.5 L 35.5 11.5 L 30.5 11.5 L 30.5 16.5 Z M 42.5 16.5 L 42.5 11.5 L 37.5 11.5 L 37.5 16.5 Z M 63.5 16.5 L 63.5 11.5 L 58.5 11.5 L 58.5 16.5 Z M 77.5 16.5 L 77.5 11.5 L 72.5 11.5 L 72.5 16.5 Z M 98.5 16.5 L 98.5 11.5 L 93.5 11.5 L 93.5 16.5 Z M 105.5 16.5 L 105.5 11.5 L 100.5 11.5 L 100.5 16.5 Z M 112.5 16.5 L 112.5 11.5 L 107.5 11.5 L 107.5 16.5 Z M 126.5 16.5 L 126.5 11.5 L 121.5 11.5 L 121.5 16.5 Z M 154.5 16.5 L 154.5 11.5 L 149.5 11.5 L 149.5 16.5 Z M 168.5 16.5 L 168.5 11.5 L 163.5 11.5 L 163.5 16.5 Z M 175.5 16.5 L 175.5 11.5 L 170.5 11.5 L 170.5 16.5 Z M 182.5 16.5 L 182.5 11.5 L 177.5 11.5 L 177.5 16.5 Z M 189.5 16.5 L 189.5 11.5 L 184.5 11.5 L 184.5 16.5 Z M 238.5 16.5 L 238.5 11.5 L 233.5 11.5 L 233.5 16.5 Z M 245.5 16.5 L 245.5 11.5 L 240.5 11.5 L 240.5 16.5 Z M 266.5 16.5 L 266.5 11.5 L 261.5 11.5 L 261.5 16.5 Z M 287.5 16.5 L 287.5 11.5 L 282.5 11.5 L 282.5 16.5 Z M 28.5 23.5 L 28.5 18.5 L 23.5 18.5 L 23.5 23.5 Z M 35.5 23.5 L 35.5 18.5 L 30.5 18.5 L 30.5 23.5 Z M 42.5 23.5 L 42.5 18.5 L 37.5 18.5 L 37.5 23.5 Z M 56.5 23.5 L 56.5 18.5 L 51.5 18.5 L 51.5 23.5 Z M 63.5 23.5 L 63.5 18.5 L 58.5 18.5 L 58.5 23.5 Z M 70.5 23.5 L 70.5 18.5 L 65.5 18.5 L 65.5 23.5 Z M 77.5 23.5 L 77.5 18.5 L 72.5 18.5 L 72.5 23.5 Z M 91.5 23.5 L 91.5 18.5 L 86.5 18.5 L 86.5 23.5 Z M 98.5 23.5 L 98.5 18.5 L 93.5 18.5 L 93.5 23.5 Z M 112.5 23.5 L 112.5 18.5 L 107.5 18.5 L 107.5 23.5 Z M 119.5 23.5 L 119.5 18.5 L 114.5 18.5 L 114.5 23.5 Z M 126.5 23.5 L 126.5 18.5 L 121.5 18.5 L 121.5 23.5 Z M 147.5 23.5 L 147.5 18.5 L 142.5 18.5 L 142.5 23.5 Z M 154.5 23.5 L 154.5 18.5 L 149.5 18.5 L 149.5 23.5 Z M 161.5 23.5 L 161.5 18.5 L 156.5 18.5 L 156.5 23.5 Z M 168.5 23.5 L 168.5 18.5 L 163.5 18.5 L 163.5 23.5 Z M 189.5 23.5 L 189.5 18.5 L 184.5 18.5 L 184.5 23.5 Z M 231.5 23.5 L 231.5 18.5 L 226.5 18.5 L 226.5 23.5 Z M 238.5 23.5 L 238.5 18.5 L 233.5 18.5 L 233.5 23.5 Z M 245.5 23.5 L 245.5 18.5 L 240.5 18.5 L 240.5 23.5 Z M 259.5 23.5 L 259.5 18.5 L 254.5 18.5 L 254.5 23.5 Z M 266.5 23.5 L 266.5 18.5 L 261.5 18.5 L 261.5 23.5 Z M 280.5 23.5 L 280.5 18.5 L 275.5 18.5 L 275.5 23.5 Z M 287.5 23.5 L 287.5 18.5 L 282.5 18.5 L 282.5 23.5 Z M 21.5 30.5 L 21.5 25.5 L 16.5 25.5 L 16.5 30.5 Z M 28.5 30.5 L 28.5 25.5 L 23.5 25.5 L 23.5 30.5 Z M 42.5 30.5 L 42.5 25.5 L 37.5 25.5 L 37.5 30.5 Z M 49.5 30.5 L 49.5 25.5 L 44.5 25.5 L 44.5 30.5 Z M 56.5 30.5 L 56.5 25.5 L 51.5 25.5 L 51.5 30.5 Z M 77.5 30.5 L 77.5 25.5 L 72.5 25.5 L 72.5 30.5 Z M 84.5 30.5 L 84.5 25.5 L 79.5 25.5 L 79.5 30.5 Z M 91.5 30.5 L 91.5 25.5 L 86.5 25.5 L 86.5 30.5 Z M 98.5 30.5 L 98.5 25.5 L 93.5 25.5 L 93.5 30.5 Z M 105.5 30.5 L 105.5 25.5 L 100.5 25.5 L 100.5 30.5 Z M 112.5 30.5 L 112.5 25.5 L 107.5 25.5 L 107.5 30.5 Z M 126.5 30.5 L 126.5 25.5 L 121.5 25.5 L 121.5 30.5 Z M 140.5 30.5 L 140.5 25.5 L 135.5 25.5 L 135.5 30.5 Z M 147.5 30.5 L 147.5 25.5 L 142.5 25.5 L 142.5 30.5 Z M 168.5 30.5 L 168.5 25.5 L 163.5 25.5 L 163.5 30.5 Z M 182.5 30.5 L 182.5 25.5 L 177.5 25.5 L 177.5 30.5 Z M 189.5 30.5 L 189.5 25.5 L 184.5 25.5 L 184.5 30.5 Z M 224.5 30.5 L 224.5 25.5 L 219.5 25.5 L 219.5 30.5 Z M 231.5 30.5 L 231.5 25.5 L 226.5 25.5 L 226.5 30.5 Z M 245.5 30.5 L 245.5 25.5 L 240.5 25.5 L 240.5 30.5 Z M 252.5 30.5 L 252.5 25.5 L 247.5 25.5 L 247.5 30.5 Z M 259.5 30.5 L 259.5 25.5 L 254.5 25.5 L 254.5 30.5 Z M 266.5 30.5 L 266.5 25.5 L 261.5 25.5 L 261.5 30.5 Z M 273.5 30.5 L 273.5 25.5 L 268.5 25.5 L 268.5 30.5 Z M 280.5 30.5 L 280.5 25.5 L 275.5 25.5 L 275.5 30.5 Z M 287.5 30.5 L 287.5 25.5 L 282.5 25.5 L 282.5 30.5 Z M 14.5 37.5 L 14.5 32.5 L 9.5 32.5 L 9.5 37.5 Z M 21.5 37.5 L 21.5 32.5 L 16.5 32.5 L 16.5 37.5 Z M 28.5 37.5 L 28.5 32.5 L 23.5 32.5 L 23.5 37.5 Z M 35.5 37.5 L 35.5 32.5 L 30.5 32.5 L 30.5 37.5 Z M 42.5 37.5 L 42.5 32.5 L 37.5 32.5 L 37.5 37.5 Z M 56.5 37.5 L 56.5 32.5 L 51.5 32.5 L 51.5 37.5 Z M 70.5 37.5 L 70.5 32.5 L 65.5 32.5 L 65.5 37.5 Z M 77.5 37.5 L 77.5 32.5 L 72.5 32.5 L 72.5 37.5 Z M 112.5 37.5 L 112.5 32.5 L 107.5 32.5 L 107.5 37.5 Z M 119.5 37.5 L 119.5 32.5 L 114.5 32.5 L 114.5 37.5 Z M 126.5 37.5 L 126.5 32.5 L 121.5 32.5 L 121.5 37.5 Z M 133.5 37.5 L 133.5 32.5 L 128.5 32.5 L 128.5 37.5 Z M 140.5 37.5 L 140.5 32.5 L 135.5 32.5 L 135.5 37.5 Z M 147.5 37.5 L 147.5 32.5 L 142.5 32.5 L 142.5 37.5 Z M 161.5 37.5 L 161.5 32.5 L 156.5 32.5 L 156.5 37.5 Z M 168.5 37.5 L 168.5 32.5 L 163.5 32.5 L 163.5 37.5 Z M 175.5 37.5 L 175.5 32.5 L 170.5 32.5 L 170.5 37.5 Z M 182.5 37.5 L 182.5 32.5 L 177.5 32.5 L 177.5 37.5 Z M 189.5 37.5 L 189.5 32.5 L 184.5 32.5 L 184.5 37.5 Z M 217.5 37.5 L 217.5 32.5 L 212.5 32.5 L 212.5 37.5 Z M 224.5 37.5 L 224.5 32.5 L 219.5 32.5 L 219.5 37.5 Z M 231.5 37.5 L 231.5 32.5 L 226.5 32.5 L 226.5 37.5 Z M 238.5 37.5 L 238.5 32.5 L 233.5 32.5 L 233.5 37.5 Z M 245.5 37.5 L 245.5 32.5 L 240.5 32.5 L 240.5 37.5 Z M 287.5 37.5 L 287.5 32.5 L 282.5 32.5 L 282.5 37.5 Z M 42.5 44.5 L 42.5 39.5 L 37.5 39.5 L 37.5 44.5 Z M 49.5 44.5 L 49.5 39.5 L 44.5 39.5 L 44.5 44.5 Z M 56.5 44.5 L 56.5 39.5 L 51.5 39.5 L 51.5 44.5 Z M 63.5 44.5 L 63.5 39.5 L 58.5 39.5 L 58.5 44.5 Z M 70.5 44.5 L 70.5 39.5 L 65.5 39.5 L 65.5 44.5 Z M 77.5 44.5 L 77.5 39.5 L 72.5 39.5 L 72.5 44.5 Z M 105.5 44.5 L 105.5 39.5 L 100.5 39.5 L 100.5 44.5 Z M 112.5 44.5 L 112.5 39.5 L 107.5 39.5 L 107.5 44.5 Z M 147.5 44.5 L 147.5 39.5 L 142.5 39.5 L 142.5 44.5 Z M 154.5 44.5 L 154.5 39.5 L 149.5 39.5 L 149.5 44.5 Z M 161.5 44.5 L 161.5 39.5 L 156.5 39.5 L 156.5 44.5 Z M 189.5 44.5 L 189.5 39.5 L 184.5 39.5 L 184.5 44.5 Z M 210.5 44.5 L 210.5 39.5 L 205.5 39.5 L 205.5 44.5 Z M 217.5 44.5 L 217.5 39.5 L 212.5 39.5 L 212.5 44.5 Z M 245.5 44.5 L 245.5 39.5 L 240.5 39.5 L 240.5 44.5 Z M 280.5 44.5 L 280.5 39.5 L 275.5 39.5 L 275.5 44.5 Z M 287.5 44.5 L 287.5 39.5 L 282.5 39.5 L 282.5 44.5 Z M 35.5 51.5 L 35.5 46.5 L 30.5 46.5 L 30.5 51.5 Z M 42.5 51.5 L 42.5 46.5 L 37.5 46.5 L 37.5 51.5 Z M 77.5 51.5 L 77.5 46.5 L 72.5 46.5 L 72.5 51.5 Z M 98.5 51.5 L 98.5 46.5 L 93.5 46.5 L 93.5 51.5 Z M 105.5 51.5 L 105.5 46.5 L 100.5 46.5 L 100.5 51.5 Z M 112.5 51.5 L 112.5 46.5 L 107.5 46.5 L 107.5 51.5 Z M 140.5 51.5 L 140.5 46.5 L 135.5 46.5 L 135.5 51.5 Z M 147.5 51.5 L 147.5 46.5 L 142.5 46.5 L 142.5 51.5 Z M 161.5 51.5 L 161.5 46.5 L 156.5 46.5 L 156.5 51.5 Z M 182.5 51.5 L 182.5 46.5 L 177.5 46.5 L 177.5 51.5 Z M 189.5 51.5 L 189.5 46.5 L 184.5 46.5 L 184.5 51.5 Z M 203.5 51.5 L 203.5 46.5 L 198.5 46.5 L 198.5 51.5 Z M 210.5 51.5 L 210.5 46.5 L 205.5 46.5 L 205.5 51.5 Z M 217.5 51.5 L 217.5 46.5 L 212.5 46.5 L 212.5 51.5 Z M 238.5 51.5 L 238.5 46.5 L 233.5 46.5 L 233.5 51.5 Z M 245.5 51.5 L 245.5 46.5 L 240.5 46.5 L 240.5 51.5 Z M 273.5 51.5 L 273.5 46.5 L 268.5 46.5 L 268.5 51.5 Z M 280.5 51.5 L 280.5 46.5 L 275.5 46.5 L 275.5 51.5 Z M 287.5 51.5 L 287.5 46.5 L 282.5 46.5 L 282.5 51.5 Z M 28.5 58.5 L 28.5 53.5 L 23.5 53.5 L 23.5 58.5 Z M 35.5 58.5 L 35.5 53.5 L 30.5 53.5 L 30.5 58.5 Z M 42.5 58.5 L 42.5 53.5 L 37.5 53.5 L 37.5 58.5 Z M 70.5 58.5 L 70.5 53.5 L 65.5 53.5 L 65.5 58.5 Z M 77.5 58.5 L 77.5 53.5 L 72.5 53.5 L 72.5 58.5 Z M 91.5 58.5 L 91.5 53.5 L 86.5 53.5 L 86.5 58.5 Z M 98.5 58.5 L 98.5 53.5 L 93.5 53.5 L 93.5 58.5 Z M 112.5 58.5 L 112.5 53.5 L 107.5 53.5 L 107.5 58.5 Z M 133.5 58.5 L 133.5 53.5 L 128.5 53.5 L 128.5 58.5 Z M 140.5 58.5 L 140.5 53.5 L 135.5 53.5 L 135.5 58.5 Z M 147.5 58.5 L 147.5 53.5 L 142.5 53.5 L 142.5 58.5 Z M 154.5 58.5 L 154.5 53.5 L 149.5 53.5 L 149.5 58.5 Z M 161.5 58.5 L 161.5 53.5 L 156.5 53.5 L 156.5 58.5 Z M 175.5 58.5 L 175.5 53.5 L 170.5 53.5 L 170.5 58.5 Z M 182.5 58.5 L 182.5 53.5 L 177.5 53.5 L 177.5 58.5 Z M 189.5 58.5 L 189.5 53.5 L 184.5 53.5 L 184.5 58.5 Z M 196.5 58.5 L 196.5 53.5 L 191.5 53.5 L 191.5 58.5 Z M 203.5 58.5 L 203.5 53.5 L 198.5 53.5 L 198.5 58.5 Z M 217.5 58.5 L 217.5 53.5 L 212.5 53.5 L 212.5 58.5 Z M 231.5 58.5 L 231.5 53.5 L 226.5 53.5 L 226.5 58.5 Z M 238.5 58.5 L 238.5 53.5 L 233.5 53.5 L 233.5 58.5 Z M 245.5 58.5 L 245.5 53.5 L 240.5 53.5 L 240.5 58.5 Z M 266.5 58.5 L 266.5 53.5 L 261.5 53.5 L 261.5 58.5 Z M 273.5 58.5 L 273.5 53.5 L 268.5 53.5 L 268.5 58.5 Z M 287.5 58.5 L 287.5 53.5 L 282.5 53.5 L 282.5 58.5 Z M 21.5 65.5 L 21.5 60.5 L 16.5 60.5 L 16.5 65.5 Z M 28.5 65.5 L 28.5 60.5 L 23.5 60.5 L 23.5 65.5 Z M 42.5 65.5 L 42.5 60.5 L 37.5 60.5 L 37.5 65.5 Z M 63.5 65.5 L 63.5 60.5 L 58.5 60.5 L 58.5 65.5 Z M 70.5 65.5 L 70.5 60.5 L 65.5 60.5 L 65.5 65.5 Z M 77.5 65.5 L 77.5 60.5 L 72.5 60.5 L 72.5 65.5 Z M 84.5 65.5 L 84.5 60.5 L 79.5 60.5 L 79.5 65.5 Z M 91.5 65.5 L 91.5 60.5 L 86.5 60.5 L 86.5 65.5 Z M 98.5 65.5 L 98.5 60.5 L 93.5 60.5 L 93.5 65.5 Z M 105.5 65.5 L 105.5 60.5 L 100.5 60.5 L 100.5 65.5 Z M 112.5 65.5 L 112.5 60.5 L 107.5 60.5 L 107.5 65.5 Z M 126.5 65.5 L 126.5 60.5 L 121.5 60.5 L 121.5 65.5 Z M 133.5 65.5 L 133.5 60.5 L 128.5 60.5 L 128.5 65.5 Z M 161.5 65.5 L 161.5 60.5 L 156.5 60.5 L 156.5 65.5 Z M 168.5 65.5 L 168.5 60.5 L 163.5 60.5 L 163.5 65.5 Z M 175.5 65.5 L 175.5 60.5 L 170.5 60.5 L 170.5 65.5 Z M 203.5 65.5 L 203.5 60.5 L 198.5 60.5 L 198.5 65.5 Z M 210.5 65.5 L 210.5 60.5 L 205.5 60.5 L 205.5 65.5 Z M 217.5 65.5 L 217.5 60.5 L 212.5 60.5 L 212.5 65.5 Z M 224.5 65.5 L 224.5 60.5 L 219.5 60.5 L 219.5 65.5 Z M 231.5 65.5 L 231.5 60.5 L 226.5 60.5 L 226.5 65.5 Z M 245.5 65.5 L 245.5 60.5 L 240.5 60.5 L 240.5 65.5 Z M 259.5 65.5 L 259.5 60.5 L 254.5 60.5 L 254.5 65.5 Z M 266.5 65.5 L 266.5 60.5 L 261.5 60.5 L 261.5 65.5 Z M 273.5 65.5 L 273.5 60.5 L 268.5 60.5 L 268.5 65.5 Z M 280.5 65.5 L 280.5 60.5 L 275.5 60.5 L 275.5 65.5 Z M 287.5 65.5 L 287.5 60.5 L 282.5 60.5 L 282.5 65.5 Z M 14.5 72.5 L 14.5 67.5 L 9.5 67.5 L 9.5 72.5 Z M 21.5 72.5 L 21.5 67.5 L 16.5 67.5 L 16.5 72.5 Z M 28.5 72.5 L 28.5 67.5 L 23.5 67.5 L 23.5 72.5 Z M 35.5 72.5 L 35.5 67.5 L 30.5 67.5 L 30.5 72.5 Z M 42.5 72.5 L 42.5 67.5 L 37.5 67.5 L 37.5 72.5 Z M 56.5 72.5 L 56.5 67.5 L 51.5 67.5 L 51.5 72.5 Z M 63.5 72.5 L 63.5 67.5 L 58.5 67.5 L 58.5 72.5 Z M 112.5 72.5 L 112.5 67.5 L 107.5 67.5 L 107.5 72.5 Z M 119.5 72.5 L 119.5 67.5 L 114.5 67.5 L 114.5 72.5 Z M 126.5 72.5 L 126.5 67.5 L 121.5 67.5 L 121.5 72.5 Z M 133.5 72.5 L 133.5 67.5 L 128.5 67.5 L 128.5 72.5 Z M 154.5 72.5 L 154.5 67.5 L 149.5 67.5 L 149.5 72.5 Z M 161.5 72.5 L 161.5 67.5 L 156.5 67.5 L 156.5 72.5 Z M 175.5 72.5 L 175.5 67.5 L 170.5 67.5 L 170.5 72.5 Z M 196.5 72.5 L 196.5 67.5 L 191.5 67.5 L 191.5 72.5 Z M 203.5 72.5 L 203.5 67.5 L 198.5 67.5 L 198.5 72.5 Z M 231.5 72.5 L 231.5 67.5 L 226.5 67.5 L 226.5 72.5 Z M 238.5 72.5 L 238.5 67.5 L 233.5 67.5 L 233.5 72.5 Z M 245.5 72.5 L 245.5 67.5 L 240.5 67.5 L 240.5 72.5 Z M 252.5 72.5 L 252.5 67.5 L 247.5 67.5 L 247.5 72.5 Z M 259.5 72.5 L 259.5 67.5 L 254.5 67.5 L 254.5 72.5 Z M 287.5 72.5 L 287.5 67.5 L 282.5 67.5 L 282.5 72.5 Z M 42.5 79.5 L 42.5 74.5 L 37.5 74.5 L 37.5 79.5 Z M 49.5 79.5 L 49.5 74.5 L 44.5 74.5 L 44.5 79.5 Z M 56.5 79.5 L 56.5 74.5 L 51.5 74.5 L 51.5 79.5 Z M 63.5 79.5 L 63.5 74.5 L 58.5 74.5 L 58.5 79.5 Z M 105.5 79.5 L 105.5 74.5 L 100.5 74.5 L 100.5 79.5 Z M 112.5 79.5 L 112.5 74.5 L 107.5 74.5 L 107.5 79.5 Z M 133.5 79.5 L 133.5 74.5 L 128.5 74.5 L 128.5 79.5 Z M 147.5 79.5 L 147.5 74.5 L 142.5 74.5 L 142.5 79.5 Z M 154.5 79.5 L 154.5 74.5 L 149.5 74.5 L 149.5 79.5 Z M 161.5 79.5 L 161.5 74.5 L 156.5 74.5 L 156.5 79.5 Z M 168.5 79.5 L 168.5 74.5 L 163.5 74.5 L 163.5 79.5 Z M 175.5 79.5 L 175.5 74.5 L 170.5 74.5 L 170.5 79.5 Z M 189.5 79.5 L 189.5 74.5 L 184.5 74.5 L 184.5 79.5 Z M 196.5 79.5 L 196.5 74.5 L 191.5 74.5 L 191.5 79.5 Z M 203.5 79.5 L 203.5 74.5 L 198.5 74.5 L 198.5 79.5 Z M 224.5 79.5 L 224.5 74.5 L 219.5 74.5 L 219.5 79.5 Z M 231.5 79.5 L 231.5 74.5 L 226.5 74.5 L 226.5 79.5 Z M 259.5 79.5 L 259.5 74.5 L 254.5 74.5 L 254.5 79.5 Z M 280.5 79.5 L 280.5 74.5 L 275.5 74.5 L 275.5 79.5 Z M 287.5 79.5 L 287.5 74.5 L 282.5 74.5 L 282.5 79.5 Z M 35.5 86.5 L 35.5 81.5 L 30.5 81.5 L 30.5 86.5 Z M 42.5 86.5 L 42.5 81.5 L 37.5 81.5 L 37.5 86.5 Z M 63.5 86.5 L 63.5 81.5 L 58.5 81.5 L 58.5 86.5 Z M 98.5 86.5 L 98.5 81.5 L 93.5 81.5 L 93.5 86.5 Z M 105.5 86.5 L 105.5 81.5 L 100.5 81.5 L 100.5 86.5 Z M 112.5 86.5 L 112.5 81.5 L 107.5 81.5 L 107.5 86.5 Z M 126.5 86.5 L 126.5 81.5 L 121.5 81.5 L 121.5 86.5 Z M 133.5 86.5 L 133.5 81.5 L 128.5 81.5 L 128.5 86.5 Z M 140.5 86.5 L 140.5 81.5 L 135.5 81.5 L 135.5 86.5 Z M 147.5 86.5 L 147.5 81.5 L 142.5 81.5 L 142.5 86.5 Z M 175.5 86.5 L 175.5 81.5 L 170.5 81.5 L 170.5 86.5 Z M 182.5 86.5 L 182.5 81.5 L 177.5 81.5 L 177.5 86.5 Z M 189.5 86.5 L 189.5 81.5 L 184.5 81.5 L 184.5 86.5 Z M 203.5 86.5 L 203.5 81.5 L 198.5 81.5 L 198.5 86.5 Z M 217.5 86.5 L 217.5 81.5 L 212.5 81.5 L 212.5 86.5 Z M 224.5 86.5 L 224.5 81.5 L 219.5 81.5 L 219.5 86.5 Z M 231.5 86.5 L 231.5 81.5 L 226.5 81.5 L 226.5 86.5 Z M 252.5 86.5 L 252.5 81.5 L 247.5 81.5 L 247.5 86.5 Z M 259.5 86.5 L 259.5 81.5 L 254.5 81.5 L 254.5 86.5 Z M 273.5 86.5 L 273.5 81.5 L 268.5 81.5 L 268.5 86.5 Z M 280.5 86.5 L 280.5 81.5 L 275.5 81.5 L 275.5 86.5 Z M 287.5 86.5 L 287.5 81.5 L 282.5 81.5 L 282.5 86.5 Z M 28.5 93.5 L 28.5 88.5 L 23.5 88.5 L 23.5 93.5 Z M 35.5 93.5 L 35.5 88.5 L 30.5 88.5 L 30.5 93.5 Z M 42.5 93.5 L 42.5 88.5 L 37.5 88.5 L 37.5 93.5 Z M 56.5 93.5 L 56.5 88.5 L 51.5 88.5 L 51.5 93.5 Z M 63.5 93.5 L 63.5 88.5 L 58.5 88.5 L 58.5 93.5 Z M 91.5 93.5 L 91.5 88.5 L 86.5 88.5 L 86.5 93.5 Z M 98.5 93.5 L 98.5 88.5 L 93.5 88.5 L 93.5 93.5 Z M 112.5 93.5 L 112.5 88.5 L 107.5 88.5 L 107.5 93.5 Z M 119.5 93.5 L 119.5 88.5 L 114.5 88.5 L 114.5 93.5 Z M 126.5 93.5 L 126.5 88.5 L 121.5 88.5 L 121.5 93.5 Z M 147.5 93.5 L 147.5 88.5 L 142.5 88.5 L 142.5 93.5 Z M 168.5 93.5 L 168.5 88.5 L 163.5 88.5 L 163.5 93.5 Z M 175.5 93.5 L 175.5 88.5 L 170.5 88.5 L 170.5 93.5 Z M 189.5 93.5 L 189.5 88.5 L 184.5 88.5 L 184.5 93.5 Z M 196.5 93.5 L 196.5 88.5 L 191.5 88.5 L 191.5 93.5 Z M 203.5 93.5 L 203.5 88.5 L 198.5 88.5 L 198.5 93.5 Z M 210.5 93.5 L 210.5 88.5 L 205.5 88.5 L 205.5 93.5 Z M 217.5 93.5 L 217.5 88.5 L 212.5 88.5 L 212.5 93.5 Z M 231.5 93.5 L 231.5 88.5 L 226.5 88.5 L 226.5 93.5 Z M 245.5 93.5 L 245.5 88.5 L 240.5 88.5 L 240.5 93.5 Z M 252.5 93.5 L 252.5 88.5 L 247.5 88.5 L 247.5 93.5 Z M 259.5 93.5 L 259.5 88.5 L 254.5 88.5 L 254.5 93.5 Z M 266.5 93.5 L 266.5 88.5 L 261.5 88.5 L 261.5 93.5 Z M 273.5 93.5 L 273.5 88.5 L 268.5 88.5 L 268.5 93.5 Z M 287.5 93.5 L 287.5 88.5 L 282.5 88.5 L 282.5 93.5 Z M 21.5 100.5 L 21.5 95.5 L 16.5 95.5 L 16.5 100.5 Z M 28.5 100.5 L 28.5 95.5 L 23.5 95.5 L 23.5 100.5 Z M 42.5 100.5 L 42.5 95.5 L 37.5 95.5 L 37.5 100.5 Z M 49.5 100.5 L 49.5 95.5 L 44.5 95.5 L 44.5 100.5 Z M 56.5 100.5 L 56.5 95.5 L 51.5 95.5 L 51.5 100.5 Z M 63.5 100.5 L 63.5 95.5 L 58.5 95.5 L 58.5 100.5 Z M 84.5 100.5 L 84.5 95.5 L 79.5 95.5 L 79.5 100.5 Z M 91.5 100.5 L 91.5 95.5 L 86.5 95.5 L 86.5 100.5 Z M 98.5 100.5 L 98.5 95.5 L 93.5 95.5 L 93.5 100.5 Z M 105.5 100.5 L 105.5 95.5 L 100.5 95.5 L 100.5 100.5 Z M 112.5 100.5 L 112.5 95.5 L 107.5 95.5 L 107.5 100.5 Z M 126.5 100.5 L 126.5 95.5 L 121.5 95.5 L 121.5 100.5 Z M 140.5 100.5 L 140.5 95.5 L 135.5 95.5 L 135.5 100.5 Z M 147.5 100.5 L 147.5 95.5 L 142.5 95.5 L 142.5 100.5 Z M 161.5 100.5 L 161.5 95.5 L 156.5 95.5 L 156.5 100.5 Z M 168.5 100.5 L 168.5 95.5 L 163.5 95.5 L 163.5 100.5 Z M 175.5 100.5 L 175.5 95.5 L 170.5 95.5 L 170.5 100.5 Z M 182.5 100.5 L 182.5 95.5 L 177.5 95.5 L 177.5 100.5 Z M 189.5 100.5 L 189.5 95.5 L 184.5 95.5 L 184.5 100.5 Z M 217.5 100.5 L 217.5 95.5 L 212.5 95.5 L 212.5 100.5 Z M 224.5 100.5 L 224.5 95.5 L 219.5 95.5 L 219.5 100.5 Z M 231.5 100.5 L 231.5 95.5 L 226.5 95.5 L 226.5 100.5 Z M 238.5 100.5 L 238.5 95.5 L 233.5 95.5 L 233.5 100.5 Z M 245.5 100.5 L 245.5 95.5 L 240.5 95.5 L 240.5 100.5 Z M 273.5 100.5 L 273.5 95.5 L 268.5 95.5 L 268.5 100.5 Z M 280.5 100.5 L 280.5 95.5 L 275.5 95.5 L 275.5 100.5 Z M 287.5 100.5 L 287.5 95.5 L 282.5 95.5 L 282.5 100.5 Z M 14.5 107.5 L 14.5 102.5 L 9.5 102.5 L 9.5 107.5 Z M 21.5 107.5 L 21.5 102.5 L 16.5 102.5 L 16.5 107.5 Z M 28.5 107.5 L 28.5 102.5 L 23.5 102.5 L 23.5 107.5 Z M 35.5 107.5 L 35.5 102.5 L 30.5 102.5 L 30.5 107.5 Z M 42.5 107.5 L 42.5 102.5 L 37.5 102.5 L 37.5 107.5 Z M 63.5 107.5 L 63.5 102.5 L 58.5 102.5 L 58.5 107.5 Z M 77.5 107.5 L 77.5 102.5 L 72.5 102.5 L 72.5 107.5 Z M 84.5 107.5 L 84.5 102.5 L 79.5 102.5 L 79.5 107.5 Z M 112.5 107.5 L 112.5 102.5 L 107.5 102.5 L 107.5 107.5 Z M 119.5 107.5 L 119.5 102.5 L 114.5 102.5 L 114.5 107.5 Z M 126.5 107.5 L 126.5 102.5 L 121.5 102.5 L 121.5 107.5 Z M 133.5 107.5 L 133.5 102.5 L 128.5 102.5 L 128.5 107.5 Z M 140.5 107.5 L 140.5 102.5 L 135.5 102.5 L 135.5 107.5 Z M 147.5 107.5 L 147.5 102.5 L 142.5 102.5 L 142.5 107.5 Z M 154.5 107.5 L 154.5 102.5 L 149.5 102.5 L 149.5 107.5 Z M 161.5 107.5 L 161.5 102.5 L 156.5 102.5 L 156.5 107.5 Z M 189.5 107.5 L 189.5 102.5 L 184.5 102.5 L 184.5 107.5 Z M 210.5 107.5 L 210.5 102.5 L 205.5 102.5 L 205.5 107.5 Z M 217.5 107.5 L 217.5 102.5 L 212.5 102.5 L 212.5 107.5 Z M 245.5 107.5 L 245.5 102.5 L 240.5 102.5 L 240.5 107.5 Z M 266.5 107.5 L 266.5 102.5 L 261.5 102.5 L 261.5 107.5 Z M 273.5 107.5 L 273.5 102.5 L 268.5 102.5 L 268.5 107.5 Z M 287.5 107.5 L 287.5 102.5 L 282.5 102.5 L 282.5 107.5 Z M 42.5 114.5 L 42.5 109.5 L 37.5 109.5 L 37.5 114.5 Z M 56.5 114.5 L 56.5 109.5 L 51.5 109.5 L 51.5 114.5 Z M 63.5 114.5 L 63.5 109.5 L 58.5 109.5 L 58.5 114.5 Z M 70.5 114.5 L 70.5 109.5 L 65.5 109.5 L 65.5 114.5 Z M 77.5 114.5 L 77.5 109.5 L 72.5 109.5 L 72.5 114.5 Z M 84.5 114.5 L 84.5 109.5 L 79.5 109.5 L 79.5 114.5 Z M 105.5 114.5 L 105.5 109.5 L 100.5 109.5 L 100.5 114.5 Z M 112.5 114.5 L 112.5 109.5 L 107.5 109.5 L 107.5 114.5 Z M 161.5 114.5 L 161.5 109.5 L 156.5 109.5 L 156.5 114.5 Z M 182.5 114.5 L 182.5 109.5 L 177.5 109.5 L 177.5 114.5 Z M 189.5 114.5 L 189.5 109.5 L 184.5 109.5 L 184.5 114.5 Z M 203.5 114.5 L 203.5 109.5 L 198.5 109.5 L 198.5 114.5 Z M 210.5 114.5 L 210.5 109.5 L 205.5 109.5 L 205.5 114.5 Z M 217.5 114.5 L 217.5 109.5 L 212.5 109.5 L 212.5 114.5 Z M 238.5 114.5 L 238.5 109.5 L 233.5 109.5 L 233.5 114.5 Z M 245.5 114.5 L 245.5 109.5 L 240.5 109.5 L 240.5 114.5 Z M 259.5 114.5 L 259.5 109.5 L 254.5 109.5 L 254.5 114.5 Z M 266.5 114.5 L 266.5 109.5 L 261.5 109.5 L 261.5 114.5 Z M 273.5 114.5 L 273.5 109.5 L 268.5 109.5 L 268.5 114.5 Z M 280.5 114.5 L 280.5 109.5 L 275.5 109.5 L 275.5 114.5 Z M 287.5 114.5 L 287.5 109.5 L 282.5 109.5 L 282.5 114.5 Z M 35.5 121.5 L 35.5 116.5 L 30.5 116.5 L 30.5 121.5 Z M 42.5 121.5 L 42.5 116.5 L 37.5 116.5 L 37.5 121.5 Z M 49.5 121.5 L 49.5 116.5 L 44.5 116.5 L 44.5 121.5 Z M 56.5 121.5 L 56.5 116.5 L 51.5 116.5 L 51.5 121.5 Z M 84.5 121.5 L 84.5 116.5 L 79.5 116.5 L 79.5 121.5 Z M 98.5 121.5 L 98.5 116.5 L 93.5 116.5 L 93.5 121.5 Z M 105.5 121.5 L 105.5 116.5 L 100.5 116.5 L 100.5 121.5 Z M 112.5 121.5 L 112.5 116.5 L 107.5 116.5 L 107.5 121.5 Z M 154.5 121.5 L 154.5 116.5 L 149.5 116.5 L 149.5 121.5 Z M 161.5 121.5 L 161.5 116.5 L 156.5 116.5 L 156.5 121.5 Z M 175.5 121.5 L 175.5 116.5 L 170.5 116.5 L 170.5 121.5 Z M 182.5 121.5 L 182.5 116.5 L 177.5 116.5 L 177.5 121.5 Z M 189.5 121.5 L 189.5 116.5 L 184.5 116.5 L 184.5 121.5 Z M 196.5 121.5 L 196.5 116.5 L 191.5 116.5 L 191.5 121.5 Z M 203.5 121.5 L 203.5 116.5 L 198.5 116.5 L 198.5 121.5 Z M 217.5 121.5 L 217.5 116.5 L 212.5 116.5 L 212.5 121.5 Z M 231.5 121.5 L 231.5 116.5 L 226.5 116.5 L 226.5 121.5 Z M 238.5 121.5 L 238.5 116.5 L 233.5 116.5 L 233.5 121.5 Z M 245.5 121.5 L 245.5 116.5 L 240.5 116.5 L 240.5 121.5 Z M 252.5 121.5 L 252.5 116.5 L 247.5 116.5 L 247.5 121.5 Z M 259.5 121.5 L 259.5 116.5 L 254.5 116.5 L 254.5 121.5 Z M 287.5 121.5 L 287.5 116.5 L 282.5 116.5 L 282.5 121.5 Z M 28.5 128.5 L 28.5 123.5 L 23.5 123.5 L 23.5 128.5 Z M 35.5 128.5 L 35.5 123.5 L 30.5 123.5 L 30.5 128.5 Z M 56.5 128.5 L 56.5 123.5 L 51.5 123.5 L 51.5 128.5 Z M 77.5 128.5 L 77.5 123.5 L 72.5 123.5 L 72.5 128.5 Z M 84.5 128.5 L 84.5 123.5 L 79.5 123.5 L 79.5 128.5 Z M 91.5 128.5 L 91.5 123.5 L 86.5 123.5 L 86.5 128.5 Z M 98.5 128.5 L 98.5 123.5 L 93.5 123.5 L 93.5 128.5 Z M 112.5 128.5 L 112.5 123.5 L 107.5 123.5 L 107.5 128.5 Z M 147.5 128.5 L 147.5 123.5 L 142.5 123.5 L 142.5 128.5 Z M 154.5 128.5 L 154.5 123.5 L 149.5 123.5 L 149.5 128.5 Z M 161.5 128.5 L 161.5 123.5 L 156.5 123.5 L 156.5 128.5 Z M 168.5 128.5 L 168.5 123.5 L 163.5 123.5 L 163.5 128.5 Z M 175.5 128.5 L 175.5 123.5 L 170.5 123.5 L 170.5 128.5 Z M 203.5 128.5 L 203.5 123.5 L 198.5 123.5 L 198.5 128.5 Z M 210.5 128.5 L 210.5 123.5 L 205.5 123.5 L 205.5 128.5 Z M 217.5 128.5 L 217.5 123.5 L 212.5 123.5 L 212.5 128.5 Z M 224.5 128.5 L 224.5 123.5 L 219.5 123.5 L 219.5 128.5 Z M 231.5 128.5 L 231.5 123.5 L 226.5 123.5 L 226.5 128.5 Z M 259.5 128.5 L 259.5 123.5 L 254.5 123.5 L 254.5 128.5 Z M 280.5 128.5 L 280.5 123.5 L 275.5 123.5 L 275.5 128.5 Z M 287.5 128.5 L 287.5 123.5 L 282.5 123.5 L 282.5 128.5 Z M 21.5 135.5 L 21.5 130.5 L 16.5 130.5 L 16.5 135.5 Z M 28.5 135.5 L 28.5 130.5 L 23.5 130.5 L 23.5 135.5 Z M 35.5 135.5 L 35.5 130.5 L 30.5 130.5 L 30.5 135.5 Z M 49.5 135.5 L 49.5 130.5 L 44.5 130.5 L 44.5 135.5 Z M 56.5 135.5 L 56.5 130.5 L 51.5 130.5 L 51.5 135.5 Z M 70.5 135.5 L 70.5 130.5 L 65.5 130.5 L 65.5 135.5 Z M 77.5 135.5 L 77.5 130.5 L 72.5 130.5 L 72.5 135.5 Z M 98.5 135.5 L 98.5 130.5 L 93.5 130.5 L 93.5 135.5 Z M 105.5 135.5 L 105.5 130.5 L 100.5 130.5 L 100.5 135.5 Z M 112.5 135.5 L 112.5 130.5 L 107.5 130.5 L 107.5 135.5 Z M 140.5 135.5 L 140.5 130.5 L 135.5 130.5 L 135.5 135.5 Z M 147.5 135.5 L 147.5 130.5 L 142.5 130.5 L 142.5 135.5 Z M 175.5 135.5 L 175.5 130.5 L 170.5 130.5 L 170.5 135.5 Z M 196.5 135.5 L 196.5 130.5 L 191.5 130.5 L 191.5 135.5 Z M 203.5 135.5 L 203.5 130.5 L 198.5 130.5 L 198.5 135.5 Z M 231.5 135.5 L 231.5 130.5 L 226.5 130.5 L 226.5 135.5 Z M 252.5 135.5 L 252.5 130.5 L 247.5 130.5 L 247.5 135.5 Z M 259.5 135.5 L 259.5 130.5 L 254.5 130.5 L 254.5 135.5 Z M 273.5 135.5 L 273.5 130.5 L 268.5 130.5 L 268.5 135.5 Z M 280.5 135.5 L 280.5 130.5 L 275.5 130.5 L 275.5 135.5 Z M 287.5 135.5 L 287.5 130.5 L 282.5 130.5 L 282.5 135.5 Z M 14.5 142.5 L 14.5 137.5 L 9.5 137.5 L 9.5 142.5 Z M 21.5 142.5 L 21.5 137.5 L 16.5 137.5 L 16.5 142.5 Z M 35.5 142.5 L 35.5 137.5 L 30.5 137.5 L 30.5 142.5 Z M 42.5 142.5 L 42.5 137.5 L 37.5 137.5 L 37.5 142.5 Z M 49.5 142.5 L 49.5 137.5 L 44.5 137.5 L 44.5 142.5 Z M 56.5 142.5 L 56.5 137.5 L 51.5 137.5 L 51.5 142.5 Z M 63.5 142.5 L 63.5 137.5 L 58.5 137.5 L 58.5 142.5 Z M 70.5 142.5 L 70.5 137.5 L 65.5 137.5 L 65.5 142.5 Z M 77.5 142.5 L 77.5 137.5 L 72.5 137.5 L 72.5 142.5 Z M 91.5 142.5 L 91.5 137.5 L 86.5 137.5 L 86.5 142.5 Z M 98.5 142.5 L 98.5 137.5 L 93.5 137.5 L 93.5 142.5 Z M 112.5 142.5 L 112.5 137.5 L 107.5 137.5 L 107.5 142.5 Z M 133.5 142.5 L 133.5 137.5 L 128.5 137.5 L 128.5 142.5 Z M 140.5 142.5 L 140.5 137.5 L 135.5 137.5 L 135.5 142.5 Z M 147.5 142.5 L 147.5 137.5 L 142.5 137.5 L 142.5 142.5 Z M 168.5 142.5 L 168.5 137.5 L 163.5 137.5 L 163.5 142.5 Z M 175.5 142.5 L 175.5 137.5 L 170.5 137.5 L 170.5 142.5 Z M 189.5 142.5 L 189.5 137.5 L 184.5 137.5 L 184.5 142.5 Z M 196.5 142.5 L 196.5 137.5 L 191.5 137.5 L 191.5 142.5 Z M 203.5 142.5 L 203.5 137.5 L 198.5 137.5 L 198.5 142.5 Z M 224.5 142.5 L 224.5 137.5 L 219.5 137.5 L 219.5 142.5 Z M 231.5 142.5 L 231.5 137.5 L 226.5 137.5 L 226.5 142.5 Z M 245.5 142.5 L 245.5 137.5 L 240.5 137.5 L 240.5 142.5 Z M 252.5 142.5 L 252.5 137.5 L 247.5 137.5 L 247.5 142.5 Z M 259.5 142.5 L 259.5 137.5 L 254.5 137.5 L 254.5 142.5 Z M 266.5 142.5 L 266.5 137.5 L 261.5 137.5 L 261.5 142.5 Z M 273.5 142.5 L 273.5 137.5 L 268.5 137.5 L 268.5 142.5 Z M 287.5 142.5 L 287.5 137.5 L 282.5 137.5 L 282.5 142.5 Z M 21.5 149.5 L 21.5 144.5 L 16.5 144.5 L 16.5 149.5 Z M 28.5 149.5 L 28.5 144.5 L 23.5 144.5 L 23.5 149.5 Z M 35.5 149.5 L 35.5 144.5 L 30.5 144.5 L 30.5 149.5 Z M 77.5 149.5 L 77.5 144.5 L 72.5 144.5 L 72.5 149.5 Z M 84.5 149.5 L 84.5 144.5 L 79.5 144.5 L 79.5 149.5 Z M 91.5 149.5 L 91.5 144.5 L 86.5 144.5 L 86.5 149.5 Z M 98.5 149.5 L 98.5 144.5 L 93.5 144.5 L 93.5 149.5 Z M 105.5 149.5 L 105.5 144.5 L 100.5 144.5 L 100.5 149.5 Z M 112.5 149.5 L 112.5 144.5 L 107.5 144.5 L 107.5 149.5 Z M 126.5 149.5 L 126.5 144.5 L 121.5 144.5 L 121.5 149.5 Z M 133.5 149.5 L 133.5 144.5 L 128.5 144.5 L 128.5 149.5 Z M 147.5 149.5 L 147.5 144.5 L 142.5 144.5 L 142.5 149.5 Z M 161.5 149.5 L 161.5 144.5 L 156.5 144.5 L 156.5 149.5 Z M 168.5 149.5 L 168.5 144.5 L 163.5 144.5 L 163.5 149.5 Z M 175.5 149.5 L 175.5 144.5 L 170.5 144.5 L 170.5 149.5 Z M 182.5 149.5 L 182.5 144.5 L 177.5 144.5 L 177.5 149.5 Z M 189.5 149.5 L 189.5 144.5 L 184.5 144.5 L 184.5 149.5 Z M 203.5 149.5 L 203.5 144.5 L 198.5 144.5 L 198.5 149.5 Z M 217.5 149.5 L 217.5 144.5 L 212.5 144.5 L 212.5 149.5 Z M 224.5 149.5 L 224.5 144.5 L 219.5 144.5 L 219.5 149.5 Z M 231.5 149.5 L 231.5 144.5 L 226.5 144.5 L 226.5 149.5 Z M 238.5 149.5 L 238.5 144.5 L 233.5 144.5 L 233.5 149.5 Z M 245.5 149.5 L 245.5 144.5 L 240.5 144.5 L 240.5 149.5 Z M 273.5 149.5 L 273.5 144.5 L 268.5 144.5 L 268.5 149.5 Z M 280.5 149.5 L 280.5 144.5 L 275.5 144.5 L 275.5 149.5 Z M 287.5 149.5 L 287.5 144.5 L 282.5 144.5 L 282.5 149.5 Z M 14.5 156.5 L 14.5 151.5 L 9.5 151.5 L 9.5 156.5 Z M 21.5 156.5 L 21.5 151.5 L 16.5 151.5 L 16.5 156.5 Z M 35.5 156.5 L 35.5 151.5 L 30.5 151.5 L 30.5 156.5 Z M 70.5 156.5 L 70.5 151.5 L 65.5 151.5 L 65.5 156.5 Z M 77.5 156.5 L 77.5 151.5 L 72.5 151.5 L 72.5 156.5 Z M 112.5 156.5 L 112.5 151.5 L 107.5 151.5 L 107.5 156.5 Z M 119.5 156.5 L 119.5 151.5 L 114.5 151.5 L 114.5 156.5 Z M 126.5 156.5 L 126.5 151.5 L 121.5 151.5 L 121.5 156.5 Z M 133.5 156.5 L 133.5 151.5 L 128.5 151.5 L 128.5 156.5 Z M 140.5 156.5 L 140.5 151.5 L 135.5 151.5 L 135.5 156.5 Z M 147.5 156.5 L 147.5 151.5 L 142.5 151.5 L 142.5 156.5 Z M 154.5 156.5 L 154.5 151.5 L 149.5 151.5 L 149.5 156.5 Z M 161.5 156.5 L 161.5 151.5 L 156.5 151.5 L 156.5 156.5 Z M 189.5 156.5 L 189.5 151.5 L 184.5 151.5 L 184.5 156.5 Z M 196.5 156.5 L 196.5 151.5 L 191.5 151.5 L 191.5 156.5 Z M 203.5 156.5 L 203.5 151.5 L 198.5 151.5 L 198.5 156.5 Z M 210.5 156.5 L 210.5 151.5 L 205.5 151.5 L 205.5 156.5 Z M 217.5 156.5 L 217.5 151.5 L 212.5 151.5 L 212.5 156.5 Z M 245.5 156.5 L 245.5 151.5 L 240.5 151.5 L 240.5 156.5 Z M 266.5 156.5 L 266.5 151.5 L 261.5 151.5 L 261.5 156.5 Z M 273.5 156.5 L 273.5 151.5 L 268.5 151.5 L 268.5 156.5 Z M 287.5 156.5 L 287.5 151.5 L 282.5 151.5 L 282.5 156.5 Z M 21.5 163.5 L 21.5 158.5 L 16.5 158.5 L 16.5 163.5 Z M 28.5 163.5 L 28.5 158.5 L 23.5 158.5 L 23.5 163.5 Z M 35.5 163.5 L 35.5 158.5 L 30.5 158.5 L 30.5 163.5 Z M 63.5 163.5 L 63.5 158.5 L 58.5 158.5 L 58.5 163.5 Z M 70.5 163.5 L 70.5 158.5 L 65.5 158.5 L 65.5 163.5 Z M 77.5 163.5 L 77.5 158.5 L 72.5 158.5 L 72.5 163.5 Z M 105.5 163.5 L 105.5 158.5 L 100.5 158.5 L 100.5 163.5 Z M 112.5 163.5 L 112.5 158.5 L 107.5 158.5 L 107.5 163.5 Z M 161.5 163.5 L 161.5 158.5 L 156.5 158.5 L 156.5 163.5 Z M 182.5 163.5 L 182.5 158.5 L 177.5 158.5 L 177.5 163.5 Z M 189.5 163.5 L 189.5 158.5 L 184.5 158.5 L 184.5 163.5 Z M 217.5 163.5 L 217.5 158.5 L 212.5 158.5 L 212.5 163.5 Z M 238.5 163.5 L 238.5 158.5 L 233.5 158.5 L 233.5 163.5 Z M 245.5 163.5 L 245.5 158.5 L 240.5 158.5 L 240.5 163.5 Z M 259.5 163.5 L 259.5 158.5 L 254.5 158.5 L 254.5 163.5 Z M 266.5 163.5 L 266.5 158.5 L 261.5 158.5 L 261.5 163.5 Z M 273.5 163.5 L 273.5 158.5 L 268.5 158.5 L 268.5 163.5 Z M 280.5 163.5 L 280.5 158.5 L 275.5 158.5 L 275.5 163.5 Z M 287.5 163.5 L 287.5 158.5 L 282.5 158.5 L 282.5 163.5 Z M 14.5 170.5 L 14.5 165.5 L 9.5 165.5 L 9.5 170.5 Z M 21.5 170.5 L 21.5 165.5 L 16.5 165.5 L 16.5 170.5 Z M 35.5 170.5 L 35.5 165.5 L 30.5 165.5 L 30.5 170.5 Z M 56.5 170.5 L 56.5 165.5 L 51.5 165.5 L 51.5 170.5 Z M 63.5 170.5 L 63.5 165.5 L 58.5 165.5 L 58.5 170.5 Z M 77.5 170.5 L 77.5 165.5 L 72.5 165.5 L 72.5 170.5 Z M 98.5 170.5 L 98.5 165.5 L 93.5 165.5 L 93.5 170.5 Z M 105.5 170.5 L 105.5 165.5 L 100.5 165.5 L 100.5 170.5 Z M 112.5 170.5 L 112.5 165.5 L 107.5 165.5 L 107.5 170.5 Z M 154.5 170.5 L 154.5 165.5 L 149.5 165.5 L 149.5 170.5 Z M 161.5 170.5 L 161.5 165.5 L 156.5 165.5 L 156.5 170.5 Z M 175.5 170.5 L 175.5 165.5 L 170.5 165.5 L 170.5 170.5 Z M 182.5 170.5 L 182.5 165.5 L 177.5 165.5 L 177.5 170.5 Z M 189.5 170.5 L 189.5 165.5 L 184.5 165.5 L 184.5 170.5 Z M 210.5 170.5 L 210.5 165.5 L 205.5 165.5 L 205.5 170.5 Z M 217.5 170.5 L 217.5 165.5 L 212.5 165.5 L 212.5 170.5 Z M 231.5 170.5 L 231.5 165.5 L 226.5 165.5 L 226.5 170.5 Z M 238.5 170.5 L 238.5 165.5 L 233.5 165.5 L 233.5 170.5 Z M 245.5 170.5 L 245.5 165.5 L 240.5 165.5 L 240.5 170.5 Z M 252.5 170.5 L 252.5 165.5 L 247.5 165.5 L 247.5 170.5 Z M 259.5 170.5 L 259.5 165.5 L 254.5 165.5 L 254.5 170.5 Z M 287.5 170.5 L 287.5 165.5 L 282.5 165.5 L 282.5 170.5 Z M 21.5 177.5 L 21.5 172.5 L 16.5 172.5 L 16.5 177.5 Z M 28.5 177.5 L 28.5 172.5 L 23.5 172.5 L 23.5 177.5 Z M 35.5 177.5 L 35.5 172.5 L 30.5 172.5 L 30.5 177.5 Z M 49.5 177.5 L 49.5 172.5 L 44.5 172.5 L 44.5 177.5 Z M 56.5 177.5 L 56.5 172.5 L 51.5 172.5 L 51.5 177.5 Z M 63.5 177.5 L 63.5 172.5 L 58.5 172.5 L 58.5 177.5 Z M 70.5 177.5 L 70.5 172.5 L 65.5 172.5 L 65.5 177.5 Z M 77.5 177.5 L 77.5 172.5 L 72.5 172.5 L 72.5 177.5 Z M 91.5 177.5 L 91.5 172.5 L 86.5 172.5 L 86.5 177.5 Z M 98.5 177.5 L 98.5 172.5 L 93.5 172.5 L 93.5 177.5 Z M 112.5 177.5 L 112.5 172.5 L 107.5 172.5 L 107.5 177.5 Z M 147.5 177.5 L 147.5 172.5 L 142.5 172.5 L 142.5 177.5 Z M 154.5 177.5 L 154.5 172.5 L 149.5 172.5 L 149.5 177.5 Z M 161.5 177.5 L 161.5 172.5 L 156.5 172.5 L 156.5 177.5 Z M 168.5 177.5 L 168.5 172.5 L 163.5 172.5 L 163.5 177.5 Z M 175.5 177.5 L 175.5 172.5 L 170.5 172.5 L 170.5 177.5 Z M 189.5 177.5 L 189.5 172.5 L 184.5 172.5 L 184.5 177.5 Z M 203.5 177.5 L 203.5 172.5 L 198.5 172.5 L 198.5 177.5 Z M 210.5 177.5 L 210.5 172.5 L 205.5 172.5 L 205.5 177.5 Z M 217.5 177.5 L 217.5 172.5 L 212.5 172.5 L 212.5 177.5 Z M 224.5 177.5 L 224.5 172.5 L 219.5 172.5 L 219.5 177.5 Z M 231.5 177.5 L 231.5 172.5 L 226.5 172.5 L 226.5 177.5 Z M 259.5 177.5 L 259.5 172.5 L 254.5 172.5 L 254.5 177.5 Z M 280.5 177.5 L 280.5 172.5 L 275.5 172.5 L 275.5 177.5 Z M 287.5 177.5 L 287.5 172.5 L 282.5 172.5 L 282.5 177.5 Z M 14.5 184.5 L 14.5 179.5 L 9.5 179.5 L 9.5 184.5 Z M 21.5 184.5 L 21.5 179.5 L 16.5 179.5 L 16.5 184.5 Z M 35.5 184.5 L 35.5 179.5 L 30.5 179.5 L 30.5 184.5 Z M 42.5 184.5 L 42.5 179.5 L 37.5 179.5 L 37.5 184.5 Z M 49.5 184.5 L 49.5 179.5 L 44.5 179.5 L 44.5 184.5 Z M 77.5 184.5 L 77.5 179.5 L 72.5 179.5 L 72.5 184.5 Z M 84.5 184.5 L 84.5 179.5 L 79.5 179.5 L 79.5 184.5 Z M 91.5 184.5 L 91.5 179.5 L 86.5 179.5 L 86.5 184.5 Z M 98.5 184.5 L 98.5 179.5 L 93.5 179.5 L 93.5 184.5 Z M 105.5 184.5 L 105.5 179.5 L 100.5 179.5 L 100.5 184.5 Z M 112.5 184.5 L 112.5 179.5 L 107.5 179.5 L 107.5 184.5 Z M 140.5 184.5 L 140.5 179.5 L 135.5 179.5 L 135.5 184.5 Z M 147.5 184.5 L 147.5 179.5 L 142.5 179.5 L 142.5 184.5 Z M 175.5 184.5 L 175.5 179.5 L 170.5 179.5 L 170.5 184.5 Z M 182.5 184.5 L 182.5 179.5 L 177.5 179.5 L 177.5 184.5 Z M 189.5 184.5 L 189.5 179.5 L 184.5 179.5 L 184.5 184.5 Z M 196.5 184.5 L 196.5 179.5 L 191.5 179.5 L 191.5 184.5 Z M 203.5 184.5 L 203.5 179.5 L 198.5 179.5 L 198.5 184.5 Z M 231.5 184.5 L 231.5 179.5 L 226.5 179.5 L 226.5 184.5 Z M 252.5 184.5 L 252.5 179.5 L 247.5 179.5 L 247.5 184.5 Z M 259.5 184.5 L 259.5 179.5 L 254.5 179.5 L 254.5 184.5 Z M 273.5 184.5 L 273.5 179.5 L 268.5 179.5 L 268.5 184.5 Z M 280.5 184.5 L 280.5 179.5 L 275.5 179.5 L 275.5 184.5 Z M 287.5 184.5 L 287.5 179.5 L 282.5 179.5 L 282.5 184.5 Z M 21.5 191.5 L 21.5 186.5 L 16.5 186.5 L 16.5 191.5 Z M 28.5 191.5 L 28.5 186.5 L 23.5 186.5 L 23.5 191.5 Z M 35.5 191.5 L 35.5 186.5 L 30.5 186.5 L 30.5 191.5 Z M 49.5 191.5 L 49.5 186.5 L 44.5 186.5 L 44.5 191.5 Z M 70.5 191.5 L 70.5 186.5 L 65.5 186.5 L 65.5 191.5 Z M 77.5 191.5 L 77.5 186.5 L 72.5 186.5 L 72.5 191.5 Z M 112.5 191.5 L 112.5 186.5 L 107.5 186.5 L 107.5 191.5 Z M 133.5 191.5 L 133.5 186.5 L 128.5 186.5 L 128.5 191.5 Z M 140.5 191.5 L 140.5 186.5 L 135.5 186.5 L 135.5 191.5 Z M 147.5 191.5 L 147.5 186.5 L 142.5 186.5 L 142.5 191.5 Z M 168.5 191.5 L 168.5 186.5 L 163.5 186.5 L 163.5 191.5 Z M 175.5 191.5 L 175.5 186.5 L 170.5 186.5 L 170.5 191.5 Z M 203.5 191.5 L 203.5 186.5 L 198.5 186.5 L 198.5 191.5 Z M 224.5 191.5 L 224.5 186.5 L 219.5 186.5 L 219.5 191.5 Z M 231.5 191.5 L 231.5 186.5 L 226.5 186.5 L 226.5 191.5 Z M 245.5 191.5 L 245.5 186.5 L 240.5 186.5 L 240.5 191.5 Z M 252.5 191.5 L 252.5 186.5 L 247.5 186.5 L 247.5 191.5 Z M 259.5 191.5 L 259.5 186.5 L 254.5 186.5 L 254.5 191.5 Z M 266.5 191.5 L 266.5 186.5 L 261.5 186.5 L 261.5 191.5 Z M 273.5 191.5 L 273.5 186.5 L 268.5 186.5 L 268.5 191.5 Z M 14.5 198.5 L 14.5 193.5 L 9.5 193.5 L 9.5 198.5 Z M 21.5 198.5 L 21.5 193.5 L 16.5 193.5 L 16.5 198.5 Z M 35.5 198.5 L 35.5 193.5 L 30.5 193.5 L 30.5 198.5 Z M 42.5 198.5 L 42.5 193.5 L 37.5 193.5 L 37.5 198.5 Z M 49.5 198.5 L 49.5 193.5 L 44.5 193.5 L 44.5 198.5 Z M 63.5 198.5 L 63.5 193.5 L 58.5 193.5 L 58.5 198.5 Z M 70.5 198.5 L 70.5 193.5 L 65.5 193.5 L 65.5 198.5 Z M 77.5 198.5 L 77.5 193.5 L 72.5 193.5 L 72.5 198.5 Z M 105.5 198.5 L 105.5 193.5 L 100.5 193.5 L 100.5 198.5 Z M 112.5 198.5 L 112.5 193.5 L 107.5 193.5 L 107.5 198.5 Z M 126.5 198.5 L 126.5 193.5 L 121.5 193.5 L 121.5 198.5 Z M 133.5 198.5 L 133.5 193.5 L 128.5 193.5 L 128.5 198.5 Z M 147.5 198.5 L 147.5 193.5 L 142.5 193.5 L 142.5 198.5 Z M 161.5 198.5 L 161.5 193.5 L 156.5 193.5 L 156.5 198.5 Z M 168.5 198.5 L 168.5 193.5 L 163.5 193.5 L 163.5 198.5 Z M 175.5 198.5 L 175.5 193.5 L 170.5 193.5 L 170.5 198.5 Z M 196.5 198.5 L 196.5 193.5 L 191.5 193.5 L 191.5 198.5 Z M 203.5 198.5 L 203.5 193.5 L 198.5 193.5 L 198.5 198.5 Z M 217.5 198.5 L 217.5 193.5 L 212.5 193.5 L 212.5 198.5 Z M 224.5 198.5 L 224.5 193.5 L 219.5 193.5 L 219.5 198.5 Z M 231.5 198.5 L 231.5 193.5 L 226.5 193.5 L 226.5 198.5 Z M 238.5 198.5 L 238.5 193.5 L 233.5 193.5 L 233.5 198.5 Z M 245.5 198.5 L 245.5 193.5 L 240.5 193.5 L 240.5 198.5 Z M 273.5 198.5 L 273.5 193.5 L 268.5 193.5 L 268.5 198.5 Z M 14.5 205.5 L 14.5 200.5 L 9.5 200.5 L 9.5 205.5 Z M 21.5 205.5 L 21.5 200.5 L 16.5 200.5 L 16.5 205.5 Z M 28.5 205.5 L 28.5 200.5 L 23.5 200.5 L 23.5 205.5 Z M 35.5 205.5 L 35.5 200.5 L 30.5 200.5 L 30.5 205.5 Z M 49.5 205.5 L 49.5 200.5 L 44.5 200.5 L 44.5 205.5 Z M 56.5 205.5 L 56.5 200.5 L 51.5 200.5 L 51.5 205.5 Z M 63.5 205.5 L 63.5 200.5 L 58.5 200.5 L 58.5 205.5 Z M 77.5 205.5 L 77.5 200.5 L 72.5 200.5 L 72.5 205.5 Z M 98.5 205.5 L 98.5 200.5 L 93.5 200.5 L 93.5 205.5 Z M 105.5 205.5 L 105.5 200.5 L 100.5 200.5 L 100.5 205.5 Z M 112.5 205.5 L 112.5 200.5 L 107.5 200.5 L 107.5 205.5 Z M 119.5 205.5 L 119.5 200.5 L 114.5 200.5 L 114.5 205.5 Z M 126.5 205.5 L 126.5 200.5 L 121.5 200.5 L 121.5 205.5 Z M 133.5 205.5 L 133.5 200.5 L 128.5 200.5 L 128.5 205.5 Z M 140.5 205.5 L 140.5 200.5 L 135.5 200.5 L 135.5 205.5 Z M 147.5 205.5 L 147.5 200.5 L 142.5 200.5 L 142.5 205.5 Z M 154.5 205.5 L 154.5 200.5 L 149.5 200.5 L 149.5 205.5 Z M 161.5 205.5 L 161.5 200.5 L 156.5 200.5 L 156.5 205.5 Z M 175.5 205.5 L 175.5 200.5 L 170.5 200.5 L 170.5 205.5 Z M 189.5 205.5 L 189.5 200.5 L 184.5 200.5 L 184.5 205.5 Z M 196.5 205.5 L 196.5 200.5 L 191.5 200.5 L 191.5 205.5 Z M 203.5 205.5 L 203.5 200.5 L 198.5 200.5 L 198.5 205.5 Z M 210.5 205.5 L 210.5 200.5 L 205.5 200.5 L 205.5 205.5 Z M 217.5 205.5 L 217.5 200.5 L 212.5 200.5 L 212.5 205.5 Z M 245.5 205.5 L 245.5 200.5 L 240.5 200.5 L 240.5 205.5 Z M 266.5 205.5 L 266.5 200.5 L 261.5 200.5 L 261.5 205.5 Z M 273.5 205.5 L 273.5 200.5 L 268.5 200.5 L 268.5 205.5 Z M 287.5 205.5 L 287.5 200.5 L 282.5 200.5 L 282.5 205.5 Z M 35.5 212.5 L 35.5 207.5 L 30.5 207.5 L 30.5 212.5 Z M 42.5 212.5 L 42.5 207.5 L 37.5 207.5 L 37.5 212.5 Z M 49.5 212.5 L 49.5 207.5 L 44.5 207.5 L 44.5 212.5 Z M 63.5 212.5 L 63.5 207.5 L 58.5 207.5 L 58.5 212.5 Z M 70.5 212.5 L 70.5 207.5 L 65.5 207.5 L 65.5 212.5 Z M 77.5 212.5 L 77.5 207.5 L 72.5 207.5 L 72.5 212.5 Z M 91.5 212.5 L 91.5 207.5 L 86.5 207.5 L 86.5 212.5 Z M 98.5 212.5 L 98.5 207.5 L 93.5 207.5 L 93.5 212.5 Z M 161.5 212.5 L 161.5 207.5 L 156.5 207.5 L 156.5 212.5 Z M 168.5 212.5 L 168.5 207.5 L 163.5 207.5 L 163.5 212.5 Z M 175.5 212.5 L 175.5 207.5 L 170.5 207.5 L 170.5 212.5 Z M 182.5 212.5 L 182.5 207.5 L 177.5 207.5 L 177.5 212.5 Z M 189.5 212.5 L 189.5 207.5 L 184.5 207.5 L 184.5 212.5 Z M 217.5 212.5 L 217.5 207.5 L 212.5 207.5 L 212.5 212.5 Z M 238.5 212.5 L 238.5 207.5 L 233.5 207.5 L 233.5 212.5 Z M 245.5 212.5 L 245.5 207.5 L 240.5 207.5 L 240.5 212.5 Z M 259.5 212.5 L 259.5 207.5 L 254.5 207.5 L 254.5 212.5 Z M 266.5 212.5 L 266.5 207.5 L 261.5 207.5 L 261.5 212.5 Z M 273.5 212.5 L 273.5 207.5 L 268.5 207.5 L 268.5 212.5 Z M 280.5 212.5 L 280.5 207.5 L 275.5 207.5 L 275.5 212.5 Z M 287.5 212.5 L 287.5 207.5 L 282.5 207.5 L 282.5 212.5 Z M 28.5 219.5 L 28.5 214.5 L 23.5 214.5 L 23.5 219.5 Z M 35.5 219.5 L 35.5 214.5 L 30.5 214.5 L 30.5 219.5 Z M 49.5 219.5 L 49.5 214.5 L 44.5 214.5 L 44.5 219.5 Z M 56.5 219.5 L 56.5 214.5 L 51.5 214.5 L 51.5 219.5 Z M 63.5 219.5 L 63.5 214.5 L 58.5 214.5 L 58.5 219.5 Z M 77.5 219.5 L 77.5 214.5 L 72.5 214.5 L 72.5 219.5 Z M 84.5 219.5 L 84.5 214.5 L 79.5 214.5 L 79.5 219.5 Z M 91.5 219.5 L 91.5 214.5 L 86.5 214.5 L 86.5 219.5 Z M 98.5 219.5 L 98.5 214.5 L 93.5 214.5 L 93.5 219.5 Z M 154.5 219.5 L 154.5 214.5 L 149.5 214.5 L 149.5 219.5 Z M 161.5 219.5 L 161.5 214.5 L 156.5 214.5 L 156.5 219.5 Z M 189.5 219.5 L 189.5 214.5 L 184.5 214.5 L 184.5 219.5 Z M 210.5 219.5 L 210.5 214.5 L 205.5 214.5 L 205.5 219.5 Z M 217.5 219.5 L 217.5 214.5 L 212.5 214.5 L 212.5 219.5 Z M 231.5 219.5 L 231.5 214.5 L 226.5 214.5 L 226.5 219.5 Z M 238.5 219.5 L 238.5 214.5 L 233.5 214.5 L 233.5 219.5 Z M 245.5 219.5 L 245.5 214.5 L 240.5 214.5 L 240.5 219.5 Z M 252.5 219.5 L 252.5 214.5 L 247.5 214.5 L 247.5 219.5 Z M 259.5 219.5 L 259.5 214.5 L 254.5 214.5 L 254.5 219.5 Z M 287.5 219.5 L 287.5 214.5 L 282.5 214.5 L 282.5 219.5 Z M 21.5 226.5 L 21.5 221.5 L 16.5 221.5 L 16.5 226.5 Z M 28.5 226.5 L 28.5 221.5 L 23.5 221.5 L 23.5 226.5 Z M 35.5 226.5 L 35.5 221.5 L 30.5 221.5 L 30.5 226.5 Z M 42.5 226.5 L 42.5 221.5 L 37.5 221.5 L 37.5 226.5 Z M 49.5 226.5 L 49.5 221.5 L 44.5 221.5 L 44.5 226.5 Z M 63.5 226.5 L 63.5 221.5 L 58.5 221.5 L 58.5 226.5 Z M 70.5 226.5 L 70.5 221.5 L 65.5 221.5 L 65.5 226.5 Z M 77.5 226.5 L 77.5 221.5 L 72.5 221.5 L 72.5 226.5 Z M 98.5 226.5 L 98.5 221.5 L 93.5 221.5 L 93.5 226.5 Z M 147.5 226.5 L 147.5 221.5 L 142.5 221.5 L 142.5 226.5 Z M 154.5 226.5 L 154.5 221.5 L 149.5 221.5 L 149.5 226.5 Z M 161.5 226.5 L 161.5 221.5 L 156.5 221.5 L 156.5 226.5 Z M 182.5 226.5 L 182.5 221.5 L 177.5 221.5 L 177.5 226.5 Z M 189.5 226.5 L 189.5 221.5 L 184.5 221.5 L 184.5 226.5 Z M 203.5 226.5 L 203.5 221.5 L 198.5 221.5 L 198.5 226.5 Z M 210.5 226.5 L 210.5 221.5 L 205.5 221.5 L 205.5 226.5 Z M 217.5 226.5 L 217.5 221.5 L 212.5 221.5 L 212.5 226.5 Z M 224.5 226.5 L 224.5 221.5 L 219.5 221.5 L 219.5 226.5 Z M 231.5 226.5 L 231.5 221.5 L 226.5 221.5 L 226.5 226.5 Z M 259.5 226.5 L 259.5 221.5 L 254.5 221.5 L 254.5 226.5 Z M 280.5 226.5 L 280.5 221.5 L 275.5 221.5 L 275.5 226.5 Z M 287.5 226.5 L 287.5 221.5 L 282.5 221.5 L 282.5 226.5 Z M 14.5 233.5 L 14.5 228.5 L 9.5 228.5 L 9.5 233.5 Z M 21.5 233.5 L 21.5 228.5 L 16.5 228.5 L 16.5 233.5 Z M 49.5 233.5 L 49.5 228.5 L 44.5 228.5 L 44.5 233.5 Z M 56.5 233.5 L 56.5 228.5 L 51.5 228.5 L 51.5 233.5 Z M 63.5 233.5 L 63.5 228.5 L 58.5 228.5 L 58.5 233.5 Z M 77.5 233.5 L 77.5 228.5 L 72.5 228.5 L 72.5 233.5 Z M 91.5 233.5 L 91.5 228.5 L 86.5 228.5 L 86.5 233.5 Z M 98.5 233.5 L 98.5 228.5 L 93.5 228.5 L 93.5 233.5 Z M 140.5 233.5 L 140.5 228.5 L 135.5 228.5 L 135.5 233.5 Z M 147.5 233.5 L 147.5 228.5 L 142.5 228.5 L 142.5 233.5 Z M 161.5 233.5 L 161.5 228.5 L 156.5 228.5 L 156.5 233.5 Z M 175.5 233.5 L 175.5 228.5 L 170.5 228.5 L 170.5 233.5 Z M 182.5 233.5 L 182.5 228.5 L 177.5 228.5 L 177.5 233.5 Z M 189.5 233.5 L 189.5 228.5 L 184.5 228.5 L 184.5 233.5 Z M 196.5 233.5 L 196.5 228.5 L 191.5 228.5 L 191.5 233.5 Z M 203.5 233.5 L 203.5 228.5 L 198.5 228.5 L 198.5 233.5 Z M 231.5 233.5 L 231.5 228.5 L 226.5 228.5 L 226.5 233.5 Z M 252.5 233.5 L 252.5 228.5 L 247.5 228.5 L 247.5 233.5 Z M 259.5 233.5 L 259.5 228.5 L 254.5 228.5 L 254.5 233.5 Z M 273.5 233.5 L 273.5 228.5 L 268.5 228.5 L 268.5 233.5 Z M 280.5 233.5 L 280.5 228.5 L 275.5 228.5 L 275.5 233.5 Z M 287.5 233.5 L 287.5 228.5 L 282.5 228.5 L 282.5 233.5 Z M 21.5 240.5 L 21.5 235.5 L 16.5 235.5 L 16.5 240.5 Z M 42.5 240.5 L 42.5 235.5 L 37.5 235.5 L 37.5 240.5 Z M 49.5 240.5 L 49.5 235.5 L 44.5 235.5 L 44.5 240.5 Z M 63.5 240.5 L 63.5 235.5 L 58.5 235.5 L 58.5 240.5 Z M 70.5 240.5 L 70.5 235.5 L 65.5 235.5 L 65.5 240.5 Z M 77.5 240.5 L 77.5 235.5 L 72.5 235.5 L 72.5 240.5 Z M 84.5 240.5 L 84.5 235.5 L 79.5 235.5 L 79.5 240.5 Z M 91.5 240.5 L 91.5 235.5 L 86.5 235.5 L 86.5 240.5 Z M 98.5 240.5 L 98.5 235.5 L 93.5 235.5 L 93.5 240.5 Z M 133.5 240.5 L 133.5 235.5 L 128.5 235.5 L 128.5 240.5 Z M 140.5 240.5 L 140.5 235.5 L 135.5 235.5 L 135.5 240.5 Z M 147.5 240.5 L 147.5 235.5 L 142.5 235.5 L 142.5 240.5 Z M 154.5 240.5 L 154.5 235.5 L 149.5 235.5 L 149.5 240.5 Z M 161.5 240.5 L 161.5 235.5 L 156.5 235.5 L 156.5 240.5 Z M 168.5 240.5 L 168.5 235.5 L 163.5 235.5 L 163.5 240.5 Z M 175.5 240.5 L 175.5 235.5 L 170.5 235.5 L 170.5 240.5 Z M 203.5 240.5 L 203.5 235.5 L 198.5 235.5 L 198.5 240.5 Z M 224.5 240.5 L 224.5 235.5 L 219.5 235.5 L 219.5 240.5 Z M 231.5 240.5 L 231.5 235.5 L 226.5 235.5 L 226.5 240.5 Z M 245.5 240.5 L 245.5 235.5 L 240.5 235.5 L 240.5 240.5 Z M 252.5 240.5 L 252.5 235.5 L 247.5 235.5 L 247.5 240.5 Z M 259.5 240.5 L 259.5 235.5 L 254.5 235.5 L 254.5 240.5 Z M 266.5 240.5 L 266.5 235.5 L 261.5 235.5 L 261.5 240.5 Z M 273.5 240.5 L 273.5 235.5 L 268.5 235.5 L 268.5 240.5 Z M 14.5 247.5 L 14.5 242.5 L 9.5 242.5 L 9.5 247.5 Z M 21.5 247.5 L 21.5 242.5 L 16.5 242.5 L 16.5 247.5 Z M 35.5 247.5 L 35.5 242.5 L 30.5 242.5 L 30.5 247.5 Z M 42.5 247.5 L 42.5 242.5 L 37.5 242.5 L 37.5 247.5 Z M 49.5 247.5 L 49.5 242.5 L 44.5 242.5 L 44.5 247.5 Z M 56.5 247.5 L 56.5 242.5 L 51.5 242.5 L 51.5 247.5 Z M 63.5 247.5 L 63.5 242.5 L 58.5 242.5 L 58.5 247.5 Z M 98.5 247.5 L 98.5 242.5 L 93.5 242.5 L 93.5 247.5 Z M 126.5 247.5 L 126.5 242.5 L 121.5 242.5 L 121.5 247.5 Z M 133.5 247.5 L 133.5 242.5 L 128.5 242.5 L 128.5 247.5 Z M 175.5 247.5 L 175.5 242.5 L 170.5 242.5 L 170.5 247.5 Z M 196.5 247.5 L 196.5 242.5 L 191.5 242.5 L 191.5 247.5 Z M 203.5 247.5 L 203.5 242.5 L 198.5 242.5 L 198.5 247.5 Z M 217.5 247.5 L 217.5 242.5 L 212.5 242.5 L 212.5 247.5 Z M 224.5 247.5 L 224.5 242.5 L 219.5 242.5 L 219.5 247.5 Z M 231.5 247.5 L 231.5 242.5 L 226.5 242.5 L 226.5 247.5 Z M 238.5 247.5 L 238.5 242.5 L 233.5 242.5 L 233.5 247.5 Z M 245.5 247.5 L 245.5 242.5 L 240.5 242.5 L 240.5 247.5 Z M 273.5 247.5 L 273.5 242.5 L 268.5 242.5 L 268.5 247.5 Z M 14.5 254.5 L 14.5 249.5 L 9.5 249.5 L 9.5 254.5 Z M 21.5 254.5 L 21.5 249.5 L 16.5 249.5 L 16.5 254.5 Z M 28.5 254.5 L 28.5 249.5 L 23.5 249.5 L 23.5 254.5 Z M 35.5 254.5 L 35.5 249.5 L 30.5 249.5 L 30.5 254.5 Z M 63.5 254.5 L 63.5 249.5 L 58.5 249.5 L 58.5 254.5 Z M 91.5 254.5 L 91.5 249.5 L 86.5 249.5 L 86.5 254.5 Z M 98.5 254.5 L 98.5 249.5 L 93.5 249.5 L 93.5 254.5 Z M 119.5 254.5 L 119.5 249.5 L 114.5 249.5 L 114.5 254.5 Z M 126.5 254.5 L 126.5 249.5 L 121.5 249.5 L 121.5 254.5 Z M 133.5 254.5 L 133.5 249.5 L 128.5 249.5 L 128.5 254.5 Z M 168.5 254.5 L 168.5 249.5 L 163.5 249.5 L 163.5 254.5 Z M 175.5 254.5 L 175.5 249.5 L 170.5 249.5 L 170.5 254.5 Z M 189.5 254.5 L 189.5 249.5 L 184.5 249.5 L 184.5 254.5 Z M 196.5 254.5 L 196.5 249.5 L 191.5 249.5 L 191.5 254.5 Z M 203.5 254.5 L 203.5 249.5 L 198.5 249.5 L 198.5 254.5 Z M 210.5 254.5 L 210.5 249.5 L 205.5 249.5 L 205.5 254.5 Z M 217.5 254.5 L 217.5 249.5 L 212.5 249.5 L 212.5 254.5 Z M 245.5 254.5 L 245.5 249.5 L 240.5 249.5 L 240.5 254.5 Z M 266.5 254.5 L 266.5 249.5 L 261.5 249.5 L 261.5 254.5 Z M 273.5 254.5 L 273.5 249.5 L 268.5 249.5 L 268.5 254.5 Z M 287.5 254.5 L 287.5 249.5 L 282.5 249.5 L 282.5 254.5 Z M 35.5 261.5 L 35.5 256.5 L 30.5 256.5 L 30.5 261.5 Z M 56.5 261.5 L 56.5 256.5 L 51.5 256.5 L 51.5 261.5 Z M 63.5 261.5 L 63.5 256.5 L 58.5 256.5 L 58.5 261.5 Z M 84.5 261.5 L 84.5 256.5 L 79.5 256.5 L 79.5 261.5 Z M 91.5 261.5 L 91.5 256.5 L 86.5 256.5 L 86.5 261.5 Z M 98.5 261.5 L 98.5 256.5 L 93.5 256.5 L 93.5 261.5 Z M 112.5 261.5 L 112.5 256.5 L 107.5 256.5 L 107.5 261.5 Z M 119.5 261.5 L 119.5 256.5 L 114.5 256.5 L 114.5 261.5 Z M 133.5 261.5 L 133.5 256.5 L 128.5 256.5 L 128.5 261.5 Z M 161.5 261.5 L 161.5 256.5 L 156.5 256.5 L 156.5 261.5 Z M 168.5 261.5 L 168.5 256.5 L 163.5 256.5 L 163.5 261.5 Z M 175.5 261.5 L 175.5 256.5 L 170.5 256.5 L 170.5 261.5 Z M 182.5 261.5 L 182.5 256.5 L 177.5 256.5 L 177.5 261.5 Z M 189.5 261.5 L 189.5 256.5 L 184.5 256.5 L 184.5 261.5 Z M 217.5 261.5 L 217.5 256.5 L 212.5 256.5 L 212.5 261.5 Z M 238.5 261.5 L 238.5 256.5 L 233.5 256.5 L 233.5 261.5 Z M 245.5 261.5 L 245.5 256.5 L 240.5 256.5 L 240.5 261.5 Z M 259.5 261.5 L 259.5 256.5 L 254.5 256.5 L 254.5 261.5 Z M 266.5 261.5 L 266.5 256.5 L 261.5 256.5 L 261.5 261.5 Z M 273.5 261.5 L 273.5 256.5 L 268.5 256.5 L 268.5 261.5 Z M 280.5 261.5 L 280.5 256.5 L 275.5 256.5 L 275.5 261.5 Z M 287.5 261.5 L 287.5 256.5 L 282.5 256.5 L 282.5 261.5 Z M 28.5 268.5 L 28.5 263.5 L 23.5 263.5 L 23.5 268.5 Z M 35.5 268.5 L 35.5 263.5 L 30.5 263.5 L 30.5 268.5 Z M 49.5 268.5 L 49.5 263.5 L 44.5 263.5 L 44.5 268.5 Z M 56.5 268.5 L 56.5 263.5 L 51.5 263.5 L 51.5 268.5 Z M 63.5 268.5 L 63.5 263.5 L 58.5 263.5 L 58.5 268.5 Z M 77.5 268.5 L 77.5 263.5 L 72.5 263.5 L 72.5 268.5 Z M 84.5 268.5 L 84.5 263.5 L 79.5 263.5 L 79.5 268.5 Z M 98.5 268.5 L 98.5 263.5 L 93.5 263.5 L 93.5 268.5 Z M 105.5 268.5 L 105.5 263.5 L 100.5 263.5 L 100.5 268.5 Z M 112.5 268.5 L 112.5 263.5 L 107.5 263.5 L 107.5 268.5 Z M 119.5 268.5 L 119.5 263.5 L 114.5 263.5 L 114.5 268.5 Z M 126.5 268.5 L 126.5 263.5 L 121.5 263.5 L 121.5 268.5 Z M 133.5 268.5 L 133.5 263.5 L 128.5 263.5 L 128.5 268.5 Z M 154.5 268.5 L 154.5 263.5 L 149.5 263.5 L 149.5 268.5 Z M 161.5 268.5 L 161.5 263.5 L 156.5 263.5 L 156.5 268.5 Z M 189.5 268.5 L 189.5 263.5 L 184.5 263.5 L 184.5 268.5 Z M 210.5 268.5 L 210.5 263.5 L 205.5 263.5 L 205.5 268.5 Z M 217.5 268.5 L 217.5 263.5 L 212.5 263.5 L 212.5 268.5 Z M 231.5 268.5 L 231.5 263.5 L 226.5 263.5 L 226.5 268.5 Z M 238.5 268.5 L 238.5 263.5 L 233.5 263.5 L 233.5 268.5 Z M 245.5 268.5 L 245.5 263.5 L 240.5 263.5 L 240.5 268.5 Z M 252.5 268.5 L 252.5 263.5 L 247.5 263.5 L 247.5 268.5 Z M 259.5 268.5 L 259.5 263.5 L 254.5 263.5 L 254.5 268.5 Z M 287.5 268.5 L 287.5 263.5 L 282.5 263.5 L 282.5 268.5 Z M 21.5 275.5 L 21.5 270.5 L 16.5 270.5 L 16.5 275.5 Z M 28.5 275.5 L 28.5 270.5 L 23.5 270.5 L 23.5 275.5 Z M 35.5 275.5 L 35.5 270.5 L 30.5 270.5 L 30.5 275.5 Z M 42.5 275.5 L 42.5 270.5 L 37.5 270.5 L 37.5 275.5 Z M 49.5 275.5 L 49.5 270.5 L 44.5 270.5 L 44.5 275.5 Z M 63.5 275.5 L 63.5 270.5 L 58.5 270.5 L 58.5 275.5 Z M 70.5 275.5 L 70.5 270.5 L 65.5 270.5 L 65.5 275.5 Z M 77.5 275.5 L 77.5 270.5 L 72.5 270.5 L 72.5 275.5 Z M 84.5 275.5 L 84.5 270.5 L 79.5 270.5 L 79.5 275.5 Z M 91.5 275.5 L 91.5 270.5 L 86.5 270.5 L 86.5 275.5 Z M 98.5 275.5 L 98.5 270.5 L 93.5 270.5 L 93.5 275.5 Z M 133.5 275.5 L 133.5 270.5 L 128.5 270.5 L 128.5 275.5 Z M 147.5 275.5 L 147.5 270.5 L 142.5 270.5 L 142.5 275.5 Z M 154.5 275.5 L 154.5 270.5 L 149.5 270.5 L 149.5 275.5 Z M 161.5 275.5 L 161.5 270.5 L 156.5 270.5 L 156.5 275.5 Z M 182.5 275.5 L 182.5 270.5 L 177.5 270.5 L 177.5 275.5 Z M 189.5 275.5 L 189.5 270.5 L 184.5 270.5 L 184.5 275.5 Z M 203.5 275.5 L 203.5 270.5 L 198.5 270.5 L 198.5 275.5 Z M 210.5 275.5 L 210.5 270.5 L 205.5 270.5 L 205.5 275.5 Z M 217.5 275.5 L 217.5 270.5 L 212.5 270.5 L 212.5 275.5 Z M 224.5 275.5 L 224.5 270.5 L 219.5 270.5 L 219.5 275.5 Z M 231.5 275.5 L 231.5 270.5 L 226.5 270.5 L 226.5 275.5 Z M 259.5 275.5 L 259.5 270.5 L 254.5 270.5 L 254.5 275.5 Z M 280.5 275.5 L 280.5 270.5 L 275.5 270.5 L 275.5 275.5 Z M 287.5 275.5 L 287.5 270.5 L 282.5 270.5 L 282.5 275.5 Z M 14.5 282.5 L 14.5 277.5 L 9.5 277.5 L 9.5 282.5 Z M 21.5 282.5 L 21.5 277.5 L 16.5 277.5 L 16.5 282.5 Z M 49.5 282.5 L 49.5 277.5 L 44.5 277.5 L 44.5 282.5 Z M 56.5 282.5 L 56.5 277.5 L 51.5 277.5 L 51.5 282.5 Z M 63.5 282.5 L 63.5 277.5 L 58.5 277.5 L 58.5 282.5 Z M 98.5 282.5 L 98.5 277.5 L 93.5 277.5 L 93.5 282.5 Z M 126.5 282.5 L 126.5 277.5 L 121.5 277.5 L 121.5 282.5 Z M 133.5 282.5 L 133.5 277.5 L 128.5 277.5 L 128.5 282.5 Z M 140.5 282.5 L 140.5 277.5 L 135.5 277.5 L 135.5 282.5 Z M 147.5 282.5 L 147.5 277.5 L 142.5 277.5 L 142.5 282.5 Z M 161.5 282.5 L 161.5 277.5 L 156.5 277.5 L 156.5 282.5 Z M 175.5 282.5 L 175.5 277.5 L 170.5 277.5 L 170.5 282.5 Z M 182.5 282.5 L 182.5 277.5 L 177.5 277.5 L 177.5 282.5 Z M 189.5 282.5 L 189.5 277.5 L 184.5 277.5 L 184.5 282.5 Z M 196.5 282.5 L 196.5 277.5 L 191.5 277.5 L 191.5 282.5 Z M 203.5 282.5 L 203.5 277.5 L 198.5 277.5 L 198.5 282.5 Z M 231.5 282.5 L 231.5 277.5 L 226.5 277.5 L 226.5 282.5 Z M 252.5 282.5 L 252.5 277.5 L 247.5 277.5 L 247.5 282.5 Z M 259.5 282.5 L 259.5 277.5 L 254.5 277.5 L 254.5 282.5 Z M 273.5 282.5 L 273.5 277.5 L 268.5 277.5 L 268.5 282.5 Z M 280.5 282.5 L 280.5 277.5 L 275.5 277.5 L 275.5 282.5 Z M 287.5 282.5 L 287.5 277.5 L 282.5 277.5 L 282.5 282.5 Z M 21.5 289.5 L 21.5 284.5 L 16.5 284.5 L 16.5 289.5 Z M 42.5 289.5 L 42.5 284.5 L 37.5 284.5 L 37.5 289.5 Z M 49.5 289.5 L 49.5 284.5 L 44.5 284.5 L 44.5 289.5 Z M 63.5 289.5 L 63.5 284.5 L 58.5 284.5 L 58.5 289.5 Z M 91.5 289.5 L 91.5 284.5 L 86.5 284.5 L 86.5 289.5 Z M 98.5 289.5 L 98.5 284.5 L 93.5 284.5 L 93.5 289.5 Z M 119.5 289.5 L 119.5 284.5 L 114.5 284.5 L 114.5 289.5 Z M 126.5 289.5 L 126.5 284.5 L 121.5 284.5 L 121.5 289.5 Z M 147.5 289.5 L 147.5 284.5 L 142.5 284.5 L 142.5 289.5 Z M 154.5 289.5 L 154.5 284.5 L 149.5 284.5 L 149.5 289.5 Z M 161.5 289.5 L 161.5 284.5 L 156.5 284.5 L 156.5 289.5 Z M 168.5 289.5 L 168.5 284.5 L 163.5 284.5 L 163.5 289.5 Z M 175.5 289.5 L 175.5 284.5 L 170.5 284.5 L 170.5 289.5 Z M 203.5 289.5 L 203.5 284.5 L 198.5 284.5 L 198.5 289.5 Z M 224.5 289.5 L 224.5 284.5 L 219.5 284.5 L 219.5 289.5 Z M 231.5 289.5 L 231.5 284.5 L 226.5 284.5 L 226.5 289.5 Z M 245.5 289.5 L 245.5 284.5 L 240.5 284.5 L 240.5 289.5 Z M 252.5 289.5 L 252.5 284.5 L 247.5 284.5 L 247.5 289.5 Z M 259.5 289.5 L 259.5 284.5 L 254.5 284.5 L 254.5 289.5 Z M 266.5 289.5 L 266.5 284.5 L 261.5 284.5 L 261.5 289.5 Z M 273.5 289.5 L 273.5 284.5 L 268.5 284.5 L 268.5 289.5 Z M 273.5 289.5 "/>
</g>
</svg>
